<svg id="Layer_1" enable-background="new 0 0 128 128" height="512" viewBox="0 0 128 128" width="512" xmlns="http://www.w3.org/2000/svg"><path d="m123.575 57.707-5.861-2.198v-3.852c0-2.857-2.325-5.182-5.182-5.182-2.846 0-5.16 2.307-5.179 5.148l-6.376-2.391v-3.389c0-2.857-2.325-5.182-5.181-5.182-2.694 0-4.888 2.073-5.134 4.703l-12.242-4.591.401-10.279c.221-5.177-2.628-14.175-7.067-18.809-3.681-3.841-7.806-3.839-11.484-.001-4.44 4.632-7.289 13.631-7.069 18.806l.401 10.282-12.241 4.591c-.246-2.63-2.44-4.703-5.134-4.703-2.857 0-5.182 2.325-5.182 5.182v3.39l-6.376 2.391c-.018-2.842-2.333-5.149-5.178-5.149-2.857 0-5.182 2.325-5.182 5.182v3.852l-5.86 2.198c-1.893.71-3.164 2.544-3.164 4.566v4.887c0 1.44.631 2.798 1.731 3.727.887.749 1.999 1.15 3.141 1.15.273 0 .548-.023.822-.07l43.55-7.41 1.285 32.961-13.76 6.857c-1.602.799-2.598 2.407-2.598 4.198 0 1.434.642 2.769 1.762 3.664.842.673 1.868 1.028 2.92 1.028.347 0 .696-.039 1.043-.117l11.279-2.551c.643 3.192 2.817 5.796 5.724 7.032v1.756c0 2.11 1.717 3.827 3.827 3.827s3.827-1.717 3.827-3.827v-1.756c2.907-1.235 5.081-3.839 5.724-7.032l11.28 2.551c.347.078.696.117 1.042.117 1.052 0 2.078-.355 2.92-1.028 1.12-.895 1.762-2.23 1.762-3.664 0-1.791-.995-3.399-2.597-4.198l-13.76-6.857 1.285-32.961 43.55 7.41c.275.047.549.07.822.07 1.142 0 2.255-.401 3.143-1.151 1.099-.929 1.731-2.286 1.731-3.726v-4.887c-.001-2.02-1.273-3.855-3.165-4.565z" fill="#e6e7e8"/><g fill="#fa759e"><path d="m19.697 49.038v-1.375c0-2.323-1.883-4.205-4.205-4.205-2.323 0-4.205 1.883-4.205 4.205v4.529z"/><path d="m36.433 42.761v-.912c0-2.323-1.883-4.205-4.205-4.205s-4.205 1.883-4.205 4.205v4.066z"/><path d="m112.738 52.193v-4.529c0-2.323-1.883-4.205-4.205-4.205-2.323 0-4.205 1.883-4.205 4.205v1.375z"/><path d="m96.001 45.916v-4.066c0-2.323-1.883-4.205-4.205-4.205s-4.205 1.883-4.205 4.205v.912z"/></g><path d="m119.232 54.628-45.814-17.182-.856 21.968 44.646 7.597c2.381.405 4.554-1.429 4.554-3.845v-4.886c0-1.626-1.008-3.081-2.53-3.652z" fill="#fff"/><path d="m119.232 57.628-45.93-17.199-.74 18.985 44.646 7.597c2.381.405 4.554-1.429 4.554-3.845v-1.886c0-1.626-1.008-3.081-2.53-3.652z" fill="#6dc9f7"/><path d="m53.24 105.032-.425-10.915-14.324 7.138c-1.26.628-2.057 1.915-2.057 3.324 0 2.381 2.21 4.147 4.532 3.622l12.31-2.783c-.012-.129-.031-.255-.036-.386z" fill="#fa759e"/><path d="m85.533 101.256-14.324-7.138-.425 10.915c-.006.13-.024.257-.035.386l12.31 2.783c2.323.525 4.532-1.241 4.532-3.622 0-1.409-.797-2.696-2.058-3.324z" fill="#fa759e"/><path d="m62.012 5.775c-6.74 0-12.121 13.951-11.835 20.684l3.063 78.573c.157 3.702 2.595 6.78 5.921 7.923v-9.293c0-1.575 1.276-2.851 2.851-2.851s2.851 1.276 2.851 2.851v9.293c3.326-1.143 5.764-4.221 5.921-7.923l3.063-78.573c.286-6.733-5.096-20.684-11.835-20.684z" fill="#6dc9f7"/><path d="m50.605 37.446-45.813 17.182c-1.522.571-2.53 2.026-2.53 3.652v4.887c0 2.415 2.173 4.25 4.554 3.845l44.646-7.597z" fill="#fff"/><path d="m6.815 67.011 44.646-7.597-.734-18.821-45.935 17.035c-1.522.571-2.53 2.026-2.53 3.652v1.887c-.001 2.415 2.172 4.249 4.553 3.844z" fill="#6dc9f7"/><path d="m68.404 21.113c.127-1.716-1.174-4.121-2.769-5.96-1.908-2.2-5.341-2.2-7.248.001-1.595 1.84-2.896 4.247-2.768 5.97l.017.253c4.248-3.217 8.498-3.217 12.75 0z" fill="#d4fbff"/><path d="m62.012 118.242c-1.574 0-2.851-1.276-2.851-2.851v-11.728c0-1.574 1.276-2.851 2.851-2.851 1.574 0 2.851 1.276 2.851 2.851v11.728c0 1.575-1.277 2.851-2.851 2.851z" fill="#fa759e"/><path d="m119.583 53.691-5.846-2.192v-3.836c0-2.87-2.335-5.206-5.205-5.206-2.847 0-5.162 2.3-5.198 5.139l-6.333-2.375v-3.373c0-2.87-2.335-5.205-5.205-5.205-2.695 0-4.892 2.066-5.153 4.694l-12.197-4.574.4-10.261c.221-5.183-2.631-14.19-7.075-18.827-3.689-3.85-7.829-3.848-11.518 0-4.444 4.637-7.295 13.644-7.074 18.823l.4 10.265-12.197 4.574c-.261-2.627-2.459-4.694-5.154-4.694-2.87 0-5.205 2.335-5.205 5.205v3.373l-6.332 2.375c-.036-2.839-2.351-5.139-5.199-5.139-2.87 0-5.205 2.335-5.205 5.206v3.836l-5.845 2.192c-1.902.713-3.18 2.557-3.18 4.588v4.887c0 1.446.634 2.811 1.739 3.744.892.753 2.01 1.156 3.157 1.156.274 0 .55-.023.826-.07l43.524-7.406 1.283 32.919-13.746 6.85c-1.61.803-2.611 2.419-2.611 4.219 0 1.441.646 2.783 1.771 3.683.846.676 1.877 1.032 2.934 1.032.348 0 .7-.039 1.048-.117l11.245-2.542c.649 3.184 2.83 5.776 5.73 7.014v1.743c0 2.123 1.728 3.851 3.851 3.851 2.124 0 3.851-1.728 3.851-3.851v-1.743c2.899-1.238 5.08-3.829 5.73-7.014l11.246 2.542c.349.079.7.117 1.048.117 1.057 0 2.088-.356 2.934-1.032 1.126-.899 1.771-2.242 1.771-3.683 0-1.799-1.001-3.416-2.611-4.219l-13.746-6.85 1.283-32.919 43.523 7.406c.275.047.552.07.826.07 1.147 0 2.265-.403 3.157-1.156 1.105-.933 1.739-2.298 1.739-3.744v-4.887c-.001-2.03-1.28-3.874-3.181-4.588zm-14.256-6.027c0-1.768 1.438-3.206 3.205-3.206s3.205 1.438 3.205 3.206v3.085l-6.41-2.404zm-16.736-5.815c0-1.767 1.438-3.205 3.205-3.205s3.205 1.438 3.205 3.205v2.623l-6.41-2.404zm-59.568 0c0-1.767 1.438-3.205 3.205-3.205 1.768 0 3.206 1.438 3.206 3.205v.219l-6.411 2.404zm-16.737 5.815c0-1.768 1.438-3.206 3.205-3.206 1.768 0 3.206 1.438 3.206 3.206v.681l-6.411 2.404zm-5.638 18.361c-.845.145-1.702-.091-2.357-.643-.654-.552-1.029-1.36-1.029-2.216v-4.887c0-1.202.756-2.293 1.882-2.715l44.516-16.695.768 19.707zm34.097 41.201c-.808.183-1.644-.009-2.292-.526-.648-.518-1.02-1.291-1.02-2.12 0-1.036.576-1.967 1.503-2.429l12.939-6.448.048 1.223.3 7.704zm23.118 8.165c0 1.021-.831 1.851-1.851 1.851s-1.851-.83-1.851-1.851v-11.729c0-1.021.83-1.851 1.851-1.851s1.851.83 1.851 1.851zm22.728-10.812c0 .83-.372 1.602-1.02 2.12-.648.519-1.485.71-2.292.526l-11.479-2.595.348-8.928 12.938 6.448c.929.463 1.505 1.394 1.505 2.429zm34.172-41.412c0 .856-.375 1.664-1.029 2.216s-1.516.787-2.357.643l-43.781-7.449.131-3.363c.021-.552-.408-1.017-.96-1.038-.55-.027-1.017.408-1.038.96l-1.518 38.939c0 .001-.001.003-.001.004l-.425 10.909c0 .003-.001.007-.001.01-.121 2.774-1.67 5.144-3.922 6.423v-7.758c0-2.123-1.727-3.851-3.851-3.851-2.123 0-3.851 1.728-3.851 3.851v7.759c-2.25-1.278-3.798-3.646-3.921-6.415 0-.005-.001-.011-.002-.016l-.425-10.912v-.001l-2.637-67.66c-.203-4.77 2.542-13.207 6.521-17.358 2.905-3.031 5.725-3.031 8.629 0 3.979 4.151 6.725 12.587 6.521 17.361l-.587 15.045c-.021.552.408 1.017.96 1.038.562.021 1.018-.408 1.038-.96l.104-2.675 21.011 7.88.275.103 8.326 3.122 8.41 3.154h.002l6.494 2.435c1.125.422 1.882 1.513 1.882 2.715v4.889z" fill="#3a2c60"/><path d="m73.108 45.388c-.539-.025-1.018.408-1.038.96l-.189 4.882c-.021.552.408 1.017.96 1.038.014.001.026.001.04.001.534 0 .978-.422.998-.961l.189-4.882c.022-.552-.408-1.017-.96-1.038z" fill="#3a2c60"/><path d="m62.012 12.503h-.001c-1.684 0-3.28.728-4.379 1.997-1.561 1.802-3.171 4.507-3.01 6.692l.017.253c.024.367.249.69.583.843.132.06.274.09.415.09.214 0 .427-.069.604-.203 3.883-2.939 7.658-2.939 11.543 0 .293.223.684.265 1.019.112s.559-.477.583-.843l.018-.262c.158-2.185-1.451-4.884-3.011-6.684-1.101-1.268-2.697-1.995-4.381-1.995zm-.001 5.448c-1.691 0-3.381.461-5.065 1.382.414-1.096 1.189-2.36 2.198-3.524.719-.83 1.764-1.306 2.868-1.306h.001c1.104 0 2.149.476 2.868 1.305 1.011 1.166 1.789 2.432 2.202 3.528-1.687-.923-3.38-1.385-5.072-1.385z" fill="#3a2c60"/></svg>